# xmcd
#
# Track frame offsets:
# 150
# 8266
# 25348
# 51094
# 66285
#
# Disc length: 1241 seconds
#
#
# Revision: 0
# Processed by: cddbd v1.5.1PL0 Copyright (c) Steve Scherf et al.
# Submitted via: FreeRIP 2.941 
#
DISCID=3304d705
DTITLE=No Nonsense - Heaven
DYEAR=1900
DGENRE=Pop
TTITLE0=Aguas de Março
TTITLE1=It's All In The Game
TTITLE2=When Doves Cry
TTITLE3=Unfoolish
TTITLE4=Heaven
EXTD=
EXTT0=
EXTT1=
EXTT2=
EXTT3=
EXTT4=
PLAYORDER=
